<?xml version="1.0" encoding="utf-8"?>
<!-- Generator: Adobe Illustrator 15.0.0, SVG Export Plug-In  -->
<!DOCTYPE svg PUBLIC "-//W3C//DTD SVG 1.1//EN" "http://www.w3.org/Graphics/SVG/1.1/DTD/svg11.dtd" [
	<!ENTITY ns_flows "http://ns.adobe.com/Flows/1.0/">
]>
<svg version="1.1"
	 xmlns="http://www.w3.org/2000/svg" xmlns:xlink="http://www.w3.org/1999/xlink" xmlns:a="http://ns.adobe.com/AdobeSVGViewerExtensions/3.0/"
	 x="0px" y="0px" width="50px" height="50px" viewBox="0 0 50 50" enable-background="new 0 0 50 50" xml:space="preserve">
<defs>
</defs>
<path fill="#FFFFFF" d="M25,4.165c-2.822,0-5.518,0.557-8.091,1.66c-2.568,1.108-4.785,2.588-6.641,4.443s-3.335,4.072-4.443,6.641
	c-1.108,2.573-1.66,5.269-1.66,8.091s0.552,5.518,1.66,8.086c1.108,2.578,2.588,4.785,4.443,6.641s4.072,3.34,6.641,4.443
	c2.573,1.113,5.269,1.66,8.091,1.66s5.518-0.547,8.091-1.66c2.568-1.104,4.78-2.588,6.636-4.443s3.34-4.063,4.443-6.641
	c1.113-2.568,1.66-5.264,1.66-8.086s-0.547-5.518-1.66-8.091c-1.104-2.568-2.588-4.785-4.443-6.641s-4.067-3.335-6.636-4.443
	C30.518,4.722,27.822,4.165,25,4.165z M50,25c0,4.531-1.113,8.721-3.35,12.549s-5.273,6.865-9.102,9.102
	C33.716,48.887,29.536,50,25,50s-8.721-1.113-12.549-3.35c-3.833-2.236-6.865-5.273-9.102-9.102C1.118,33.721,0,29.531,0,25
	s1.118-8.721,3.35-12.549c2.236-3.828,5.269-6.865,9.102-9.097C16.279,1.118,20.464,0,25,0s8.716,1.118,12.549,3.354
	c3.828,2.231,6.865,5.269,9.102,9.097S50,20.469,50,25z"/>
<path fill="#5CACD2" d="M48.413,25.02c0,4.249-1.043,8.17-3.138,11.762c-2.098,3.594-4.937,6.433-8.532,8.527
	c-3.592,2.096-7.513,3.148-11.763,3.148c-4.254,0-8.176-1.053-11.77-3.148c-3.588-2.095-6.433-4.934-8.529-8.527
	c-2.096-3.592-3.144-7.513-3.144-11.762s1.048-8.174,3.144-11.762c2.097-3.593,4.941-6.436,8.529-8.532
	c3.594-2.097,7.516-3.144,11.77-3.144c4.25,0,8.171,1.047,11.763,3.144c3.596,2.097,6.435,4.939,8.532,8.532
	C47.37,16.846,48.413,20.771,48.413,25.02z"/>
<path fill="#FFFFFF" d="M34.683,24.482c-1.23-1.914-2.783-3.359-4.648-4.307c0.498,0.85,0.742,1.758,0.742,2.744
	c0,1.504-0.532,2.793-1.602,3.867c-1.069,1.064-2.358,1.602-3.862,1.602c-1.509,0-2.798-0.537-3.867-1.602
	c-1.069-1.074-1.602-2.363-1.602-3.867c0-0.986,0.244-1.895,0.742-2.744c-1.865,0.947-3.413,2.393-4.648,4.307
	c1.079,1.67,2.437,2.998,4.067,3.984c1.636,0.996,3.403,1.484,5.308,1.484s3.672-0.488,5.303-1.484
	C32.246,27.48,33.604,26.152,34.683,24.482z M25.894,19.795c0-0.166-0.054-0.303-0.166-0.41c-0.117-0.117-0.254-0.176-0.415-0.176
	c-1.021,0-1.895,0.361-2.622,1.094s-1.089,1.602-1.089,2.617c0,0.166,0.054,0.303,0.171,0.42c0.112,0.107,0.249,0.166,0.415,0.166
	c0.161,0,0.298-0.059,0.415-0.166c0.112-0.117,0.171-0.254,0.171-0.42c0-0.693,0.244-1.299,0.742-1.797s1.094-0.742,1.797-0.742
	c0.161,0,0.298-0.059,0.415-0.166C25.84,20.098,25.894,19.961,25.894,19.795z M36.245,24.482c0,0.283-0.078,0.557-0.239,0.84
	c-1.138,1.875-2.671,3.379-4.595,4.502c-1.929,1.133-3.96,1.689-6.099,1.689c-2.144,0-4.175-0.566-6.099-1.699
	c-1.924-1.123-3.457-2.627-4.595-4.492c-0.166-0.283-0.244-0.557-0.244-0.84c0-0.273,0.078-0.557,0.244-0.84
	c1.138-1.865,2.671-3.359,4.595-4.492s3.955-1.699,6.099-1.699c2.139,0,4.17,0.566,6.099,1.699c1.924,1.133,3.457,2.627,4.595,4.492
	C36.167,23.926,36.245,24.209,36.245,24.482z"/>
</svg>
